<svg width="20" height="21" viewBox="0 0 20 21" fill="none" xmlns="http://www.w3.org/2000/svg">
<g id="icon-20">
<path id="Vector (Stroke)" fill-rule="evenodd" clip-rule="evenodd" d="M3.03386 4.72519C2.2658 5.41887 1.76675 6.49947 1.99484 8.09591C2.22323 9.69445 3.26485 11.3518 4.80427 13.0144C6.25856 14.5851 8.10953 16.1103 9.99986 17.5406C11.8902 16.1103 13.7412 14.5851 15.1955 13.0144C16.7349 11.3518 17.7765 9.69446 18.0049 8.09592C18.2329 6.49947 17.7339 5.41887 16.9658 4.72519C16.1765 4.01235 15.0549 3.66663 13.9999 3.66663C12.1318 3.66663 11.0922 4.75141 10.5176 5.35105C10.458 5.41323 10.4034 5.47019 10.3534 5.52018C10.1582 5.71544 9.84157 5.71544 9.64631 5.52018C9.59632 5.47019 9.54173 5.41323 9.48215 5.35105C8.90748 4.75141 7.86788 3.66663 5.99986 3.66663C4.94486 3.66663 3.82316 4.01235 3.03386 4.72519ZM2.36361 3.98306C3.3736 3.0709 4.75192 2.66663 5.99986 2.66663C8.07114 2.66663 9.3453 3.7792 9.99986 4.44525C10.6544 3.7792 11.9286 2.66663 13.9999 2.66663C15.2478 2.66663 16.6261 3.0709 17.6361 3.98306C18.6673 4.91439 19.2668 6.33378 18.9948 8.23733C18.7232 10.1388 17.5148 11.9814 15.9293 13.6938C14.3354 15.4152 12.3063 17.0618 10.2999 18.5666C10.1221 18.7 9.87764 18.7 9.69986 18.5666C7.69344 17.0618 5.66434 15.4152 4.0705 13.6938C2.48494 11.9814 1.27656 10.1388 1.00489 8.23734C0.732921 6.33378 1.3324 4.91439 2.36361 3.98306Z" fill="black"/>
</g>
</svg>
