<svg width="20" height="21" viewBox="0 0 20 21" fill="none" xmlns="http://www.w3.org/2000/svg">
<g id="icon-20">
<g id="Vector">
<path fill-rule="evenodd" clip-rule="evenodd" d="M2.5 5.66663C2.5 5.39048 2.72386 5.16663 3 5.16663H17C17.2761 5.16663 17.5 5.39048 17.5 5.66663C17.5 5.94277 17.2761 6.16663 17 6.16663H3C2.72386 6.16663 2.5 5.94277 2.5 5.66663Z" fill="black"/>
<path fill-rule="evenodd" clip-rule="evenodd" d="M3.4584 5.16663H16.5059L15.6411 16.3592C15.5405 17.6613 14.4546 18.6666 13.1486 18.6666H6.84639C5.54299 18.6666 4.45829 17.6652 4.35435 16.366L3.4584 5.16663ZM4.5416 6.16663L5.35117 16.2862C5.41353 17.0658 6.06435 17.6666 6.84639 17.6666H13.1486C13.9322 17.6666 14.5837 17.0635 14.6441 16.2822L15.4256 6.16663H4.5416Z" fill="black"/>
<path fill-rule="evenodd" clip-rule="evenodd" d="M13 6.16663H7V4.13538C7 3.32421 7.65758 2.66663 8.46875 2.66663H11.5312C12.3424 2.66663 13 3.32421 13 4.13538V6.16663ZM8.46875 3.66663C8.20987 3.66663 8 3.87649 8 4.13538V5.16663H12V4.13538C12 3.87649 11.7901 3.66663 11.5312 3.66663H8.46875Z" fill="black"/>
</g>
</g>
</svg>
